<svg xmlns="http://www.w3.org/2000/svg" viewBox="0 0 1200 500" width="1200" height="500">
  <rect width="1200" height="500" fill="#fbfbfa"/>
  <g font-family="ui-sans-serif, system-ui, sans-serif" font-size="20" fill="#1a1a1a">
    <g transform="translate(60, 140)">
      <rect width="240" height="220" rx="12" fill="white" stroke="#2f6feb" stroke-width="2"/>
      <text x="120" y="40" text-anchor="middle" font-weight="700">.md files</text>
      <rect x="30" y="60" width="180" height="16" rx="3" fill="#cfd2d6"/>
      <rect x="30" y="86" width="160" height="16" rx="3" fill="#cfd2d6"/>
      <rect x="30" y="112" width="180" height="16" rx="3" fill="#cfd2d6"/>
      <rect x="30" y="138" width="140" height="16" rx="3" fill="#cfd2d6"/>
      <rect x="30" y="164" width="170" height="16" rx="3" fill="#cfd2d6"/>
    </g>

    <g transform="translate(440, 140)">
      <rect width="280" height="220" rx="12" fill="white" stroke="#2f6feb" stroke-width="2"/>
      <text x="140" y="40" text-anchor="middle" font-weight="700">Astro build</text>
      <circle cx="140" cy="120" r="50" fill="#e7efff" stroke="#2f6feb" stroke-width="2"/>
      <path d="M120 110 L140 90 L160 110 M140 90 V150" stroke="#2f6feb" stroke-width="3" fill="none" stroke-linecap="round"/>
    </g>

    <g transform="translate(860, 140)">
      <rect width="280" height="220" rx="12" fill="#2f6feb"/>
      <text x="140" y="40" text-anchor="middle" font-weight="700" fill="white">Cloudflare</text>
      <text x="140" y="65" text-anchor="middle" font-size="16" fill="white" fill-opacity="0.9">Workers</text>
      <g transform="translate(60, 100)">
        <rect x="0" y="0" width="160" height="80" rx="8" fill="white" fill-opacity="0.15"/>
        <rect x="20" y="20" width="120" height="10" rx="3" fill="white" fill-opacity="0.6"/>
        <rect x="20" y="40" width="100" height="10" rx="3" fill="white" fill-opacity="0.6"/>
        <rect x="20" y="60" width="80" height="10" rx="3" fill="white" fill-opacity="0.6"/>
      </g>
    </g>

    <g stroke="#2f6feb" stroke-width="3" fill="none" stroke-linecap="round" stroke-linejoin="round">
      <path d="M310 250 L430 250" />
      <polygon points="430,250 418,244 418,256" fill="#2f6feb"/>
      <path d="M730 250 L850 250" />
      <polygon points="850,250 838,244 838,256" fill="#2f6feb"/>
    </g>
  </g>
</svg>
